<?xml version="1.0" encoding="UTF-8"?>
<!DOCTYPE svg PUBLIC "-//W3C//DTD SVG 1.1//EN" "http://www.w3.org/Graphics/SVG/1.1/DTD/svg11.dtd">
<!-- Creator: CorelDRAW -->
<svg xmlns="http://www.w3.org/2000/svg" xml:space="preserve" width="372.598mm" height="364.941mm" version="1.1" style="shape-rendering:geometricPrecision; text-rendering:geometricPrecision; image-rendering:optimizeQuality; fill-rule:evenodd; clip-rule:evenodd"
viewBox="0 0 3574.75 3501.29"
 xmlns:xlink="http://www.w3.org/1999/xlink"
 xmlns:xodm="http://www.corel.com/coreldraw/odm/2003">
 <defs>
  <style type="text/css">
   <![CDATA[
    .fil0 {fill:#4686CC}
   ]]>
  </style>
 </defs>
 <g id="Слой_x0020_1">
  <metadata id="CorelCorpID_0Corel-Layer"/>
  <path class="fil0" d="M2927.17 1592.96c-34.66,-2.88 -98.97,-28.93 -130.41,-39.4 -30.33,-10.11 -102.12,-39.28 -128.35,-41.46 11.79,22.27 21.45,37.33 35.87,61.16l411.36 712.61c50.68,90.69 118.8,173.47 118.8,301.68 0,156.36 -106.99,293.8 -240.63,333.49 -130.46,38.75 -634.08,22.3 -802.48,22.3l0 -226.41 -438.52 345.84c-25.89,21.02 -46.06,25.98 -54.74,58.47 28.19,7.53 217.3,167.09 247.13,189.52 76.56,57.58 174.44,142.53 246.13,190.53l0 -218.32 630.71 0c113.76,0 226.59,-16.09 307.43,-48.36 74.71,-29.82 162.56,-79.64 220.35,-135.44 244.49,-236.03 297.28,-585.52 120.67,-877.06 -45.36,-74.87 -480.35,-849.28 -510.99,-871.73 -6.3,75.68 -32.35,163.52 -32.35,242.58z"/>
  <path class="fil0" d="M218.32 1576.79c6.15,23.03 15.74,26.15 35.37,37.41 20.82,11.95 32.53,16.9 52.11,28.75 25.32,15.33 72.59,48.21 98.5,55.13l-229.85 400.86c-102.69,173.61 -174.45,277.59 -174.45,512.87 0,295.39 211.07,544.6 488.1,635.86 141.52,46.62 338.93,35.29 522.66,35.29 188.68,0 377.35,0 566.03,0 -28.28,-42.23 -144.52,-152.21 -161.72,-177.9 21.3,-31.81 50.71,-54.74 78.84,-82.88 15.25,-15.26 24.72,-25.71 40.3,-40.56 18.74,-17.86 29.85,-20.9 42.58,-38.28 -264.15,0 -528.29,-0.16 -792.44,0 -160.74,0.09 -219.49,-11.38 -314.3,-81.92 -156.4,-116.36 -163.15,-309.1 -68.33,-478.62l196.25 -337.43c31.58,-55.18 63.13,-118.18 97.44,-169.41 32.43,17.16 59.84,32.07 93.62,51.93 31.88,18.74 64.89,44.9 100.45,53.19l-67.07 -490.87c-17.66,-134.7 -7.87,-139.44 -51.41,-122.71 -51.92,19.95 -511.2,205.83 -552.68,209.28z"/>
  <path class="fil0" d="M719.66 1164.4l242.95 -79.76c6.2,77.81 33.26,167.8 40.06,249.57l42.04 -63.08c110.05,-184.36 347.37,-623.01 441.48,-763.35 40.98,-61.11 47.87,-69.77 106.68,-111.65 70.56,-50.24 132.16,-56.52 218.41,-56.52 175.82,0 260.35,138.81 328.12,254.08 38.02,64.68 67.68,121.37 105.98,185.12 39.07,65.04 72.77,125.57 107.67,191.51 -39.75,21.03 -162.42,97.75 -194.07,105.12 21.23,28.97 438.02,191.2 512.85,223.01l69.35 19.57c8.23,-17.15 97.03,-568.95 97.03,-614.54 -47.08,10.97 -147.15,93.13 -194.07,97.03 -9.15,-39.27 -274.92,-482.79 -295.8,-512.81 -109.72,-157.79 -329.37,-287.71 -520.9,-287.71 -194.4,0 -320.28,31 -476.05,154.67 -116.64,92.62 -159.05,186.26 -236,313.86l-298.72 517.98c-16.49,30.49 -33.3,54.61 -51.02,86.45 -16.76,30.13 -38.55,59.41 -46.02,91.45z"/>
 </g>
</svg>
